<svg id="Layer_1" data-name="Layer 1" xmlns="http://www.w3.org/2000/svg" viewBox="0 0 402 383"><defs><style>.cls-1{fill:#00a751;}.cls-2{fill:#eb981e;}.cls-3{fill:#fff;}</style></defs><title>main_logo</title><rect class="cls-1" y="-0.28853" width="401.81397" height="92.49847"/><path d="M88.53418,295.02637H73.35254l-6.0752-16.52246H39.51172l-5.73535,16.52246H18.88965l27.00976-72.95606h14.832ZM62.76953,266.16211l-9.57715-27.07227L43.7959,266.16211Z"/><path d="M99.169,295.02637V222.07031h47.54492v12.3418h-33.582v17.26855h29.081v12.3418h-29.081v31.00391Z"/><path d="M161.501,295.02637V222.07031h29.48535q11.30859,0,16.15625,1.96582a16.96157,16.96157,0,0,1,7.96289,6.81739,21.04846,21.04846,0,0,1,3.11523,11.62011q0,8.56054-4.75976,13.78516-4.76074,5.2251-13.53125,6.56934a33.38078,33.38078,0,0,1,7.44336,6.09667,84.52557,84.52557,0,0,1,8.0205,11.86817l8.42481,14.2334h-16.707l-10.13477-15.875A102.72246,102.72246,0,0,0,189.544,268.377a10.80972,10.80972,0,0,0-4.1543-2.98632,21.82013,21.82013,0,0,0-7.04-.82032h-2.88477v30.45606Zm13.96386-42.10157h10.38575q9.52147,0,12.11718-.72167a7.64579,7.64579,0,0,0,4.21289-2.91114,9.58966,9.58966,0,0,0,1.61524-5.82226,8.99031,8.99031,0,0,0-1.61524-5.59864,8.18893,8.18893,0,0,0-4.38574-2.91113q-1.96143-.54784-11.36719-.54785H175.46484Z"/><path d="M234.16406,295.02637V222.07031H248.127v72.95606Z"/><path d="M309.13379,268.20313l13.55957,4.52832q-3.17431,12.2417-10.55859,17.89062-7.38721,5.64844-18.17579,5.64844-13.56,0-21.98437-9.00781-9.69286-10.4004-9.69336-28.06739,0-18.6621,9.75977-29.21191,8.49023-9.15673,22.81445-9.15723,11.666,0,19.52148,6.86719,5.6001,4.87792,8.20118,14.48242l-13.84864,3.4834a15.504,15.504,0,0,0-5.28906-9.082,14.51583,14.51583,0,0,0-9.335-3.16016,15.63172,15.63172,0,0,0-12.544,5.77246q-4.85595,5.77442-4.85547,19.06055,0,13.78564,4.73145,19.60742a15.09587,15.09587,0,0,0,12.29,5.82227,13.68668,13.68668,0,0,0,9.57812-3.707Q307.34425,276.26514,309.13379,268.20313Z"/><path d="M400.43262,295.02637H385.251l-6.0752-16.52246H351.41016l-5.73536,16.52246H330.78809l27.00976-72.95606h14.832ZM374.668,266.16211l-9.57715-27.07227-9.39648,27.07227Z"/><path class="cls-2" d="M26.39551,187.9668V115h14.081v60.52148H75.62012V187.9668Z"/><path class="cls-2" d="M88.61621,187.9668V114.39746h14.08106V187.9668Z"/><path class="cls-2" d="M119.64844,187.9668V114.39746h47.94531v12.44531H133.72949v17.41407h29.3252v12.44531h-29.3252V187.9668Z"/><path class="cls-2" d="M182.626,187.9668V114.39746h51.90136v12.44531H196.70605v16.30957h35.14454v12.39551H196.70605v19.97363h39.10059V187.9668Z"/><path class="cls-3" d="M58.81934,54.2207V41.36035H90.26465V71.64453q-4.75048,4.82227-13.46777,8.29688A46.95879,46.95879,0,0,1,59.30078,83.416a38.2539,38.2539,0,0,1-18.8789-4.53809A32.29454,32.29454,0,0,1,27.46484,65.292q-4.77978-9.04833-4.78027-21.28711,0-12.54932,4.83984-21.46875A32.90466,32.90466,0,0,1,40.09082,9.209q7.72559-4.40625,18.48828-4.4082,12.92579,0,20.71289,5.67871,7.78565,5.67774,10.01074,16.67188L74.87305,30.00391a15.81073,15.81073,0,0,0-5.95215-8.97168A17.25112,17.25112,0,0,0,58.5791,17.9209q-9.3208,0-15.0918,6.249-5.77147,6.249-5.77148,19.05664,0,13.74316,6.25293,20.89844,5.35107,6.17139,14.49023,6.1709a25.125,25.125,0,0,0,8.86817-1.73145,28.35691,28.35691,0,0,0,8.207-4.72949V54.2207Z"/><path class="cls-3" d="M106.625,82.11914V6.09766h30.72363q11.78321,0,16.835,2.04785A17.677,17.677,0,0,1,162.48047,15.25a21.92575,21.92575,0,0,1,3.24707,12.1084q0,8.92089-4.96,14.36426-4.96143,5.44482-14.09961,6.8457a34.77307,34.77307,0,0,1,7.75586,6.35254q3.06738,3.44824,8.35742,12.36719l8.77832,14.83105H154.15039l-10.55957-16.542q-5.70264-8.97071-7.74512-11.22754a11.255,11.255,0,0,0-4.3291-3.11133,22.71414,22.71414,0,0,0-7.335-.85547H121.1748V82.11914ZM121.1748,38.249h10.82227q9.92139,0,12.62695-.752a7.963,7.963,0,0,0,4.38868-3.03418,9.98647,9.98647,0,0,0,1.68359-6.06738,9.36368,9.36368,0,0,0-1.68359-5.833,8.53355,8.53355,0,0,0-4.56934-3.03418q-2.04492-.56982-11.84473-.57031H121.1748Z"/><path class="cls-3" d="M182.3291,82.11914V6.09766H235.96V18.958H196.87891V35.81152h36.31543v12.8086H196.87891V69.25879H237.2832V82.11914Z"/><path class="cls-3" d="M252.501,82.11914V6.09766h53.63086V18.958H267.05078V35.81152h36.31543v12.8086H267.05078V69.25879h40.4043V82.11914Z"/><path class="cls-3" d="M322.793,82.11914V6.09766h14.18945l29.58106,50.76757V6.09766h13.58886V82.11914H365.48145L336.38086,32.544V82.11914Z"/><rect class="cls-1" y="92.20995" width="6.01004" height="288.62949"/><rect class="cls-1" x="16.74225" y="312.49039" width="121.91791" height="15.9362"/><rect class="cls-2" x="149.82166" y="312.49039" width="121.91791" height="15.9362"/><rect x="279.46677" y="312.49039" width="121.91791" height="15.9362"/><path d="M24.43359,358.76465V355.3418H31.209v8.05957a8.34012,8.34012,0,0,1-2.90234,2.208,8.45533,8.45533,0,0,1-3.76953.9248,7.02225,7.02225,0,0,1-4.06738-1.207,8.09511,8.09511,0,0,1-2.791-3.61621,14.32807,14.32807,0,0,1-1.03027-5.665,14.14656,14.14656,0,0,1,1.043-5.71289,8.26248,8.26248,0,0,1,2.707-3.54688,6.73674,6.73674,0,0,1,3.9834-1.17285,6.41419,6.41419,0,0,1,4.46289,1.51074,7.34824,7.34824,0,0,1,2.15625,4.43653l-3.1084.75976a4.3645,4.3645,0,0,0-1.28223-2.38769,3.246,3.246,0,0,0-2.22851-.82813,3.87473,3.87473,0,0,0-3.251,1.66309,8.45528,8.45528,0,0,0-1.24316,5.07129,9.587,9.587,0,0,0,1.34668,5.56152,3.62019,3.62019,0,0,0,3.12207,1.64258,4.51346,4.51346,0,0,0,1.91015-.46094,5.94478,5.94478,0,0,0,1.76856-1.25879v-2.55859Z"/><path d="M37.56934,366.18945H34.57715V351.5332h2.77246v2.084A6.39058,6.39058,0,0,1,38.625,351.6709a1.94512,1.94512,0,0,1,1.30273-.48242,3.12572,3.12572,0,0,1,1.95508.73144l-.93261,3.38086a2.20631,2.20631,0,0,0-1.39844-.63476,1.47977,1.47977,0,0,0-1.09473.49023,3.36384,3.36384,0,0,0-.67969,1.77539,35.12929,35.12929,0,0,0-.208,4.72559Z"/><path d="M50.33105,361.53906l2.96583.64844a6.33273,6.33273,0,0,1-1.8545,3.27734,5.00917,5.00917,0,0,1-6.92578-.71386,9.27742,9.27742,0,0,1-1.6084-5.80664,9.754,9.754,0,0,1,1.61914-5.88965,4.2224,4.2224,0,0,1,3.54981-1.86621,4.41826,4.41826,0,0,1,3.79492,1.90722q1.58057,2.18409,1.58008,6.44141l-.0127.44238H45.96582a4.58642,4.58642,0,0,0,.7334,2.70117,2.07928,2.07928,0,0,0,1.709.95606Q49.84961,363.63672,50.33105,361.53906Zm.15528-3.93359a4.46677,4.46677,0,0,0-.68653-2.584,1.88941,1.88941,0,0,0-1.542-.86621,1.91332,1.91332,0,0,0-1.59277.90039,4.2319,4.2319,0,0,0-.64746,2.54981Z"/><path d="M63.04,361.53906l2.96582.64844a6.33272,6.33272,0,0,1-1.85449,3.27734,5.00917,5.00917,0,0,1-6.92578-.71386,9.27735,9.27735,0,0,1-1.6084-5.80664,9.754,9.754,0,0,1,1.61914-5.88965,4.22237,4.22237,0,0,1,3.5498-1.86621,4.41825,4.41825,0,0,1,3.79492,1.90722q1.58058,2.18409,1.58008,6.44141l-.01269.44238H58.6748a4.58649,4.58649,0,0,0,.7334,2.70117,2.07929,2.07929,0,0,0,1.709.95606Q62.5586,363.63672,63.04,361.53906Zm.15527-3.93359a4.46677,4.46677,0,0,0-.68652-2.584,1.88941,1.88941,0,0,0-1.542-.86621,1.91332,1.91332,0,0,0-1.59278.90039,4.2319,4.2319,0,0,0-.64746,2.54981Z"/><path d="M79.45215,366.18945H76.46v-7.48828a16.78921,16.78921,0,0,0-.168-2.998,2.07988,2.07988,0,0,0-.62793-1.14747,1.5469,1.5469,0,0,0-1.043-.40039,2.04656,2.04656,0,0,0-1.36035.51856,2.75119,2.75119,0,0,0-.85449,1.42969,15.59666,15.59666,0,0,0-.24609,3.44043v6.6455H69.167V351.5332h2.77246v2.13965a5.67231,5.67231,0,0,1,1.665-1.86328,3.60556,3.60556,0,0,1,2.05274-.62109,3.4103,3.4103,0,0,1,2.209.72461,3.71732,3.71732,0,0,1,1.24317,1.86523,12.08791,12.08791,0,0,1,.34277,3.29395Z"/><path d="M83.01563,362.31152h2.97949V365.085a8.97568,8.97568,0,0,1-.51758,3.50586,4.14355,4.14355,0,0,1-2.125,2.11133l-.583-1.60059a2.64656,2.64656,0,0,0,1.26953-1.042,3.86217,3.86217,0,0,0,.415-1.87012H83.01563Z"/><path d="M96.43945,366.18945V345.958h3.13477v7.96289h6.17871V345.958h3.13477v20.23144h-3.13477v-8.8457H99.57422v8.8457Z"/><path d="M119.27734,361.53906l2.96582.64844a6.33265,6.33265,0,0,1-1.85449,3.27734,5.00917,5.00917,0,0,1-6.92578-.71386,9.27742,9.27742,0,0,1-1.6084-5.80664,9.754,9.754,0,0,1,1.61914-5.88965,4.2224,4.2224,0,0,1,3.54981-1.86621,4.41826,4.41826,0,0,1,3.79492,1.90722q1.58056,2.18409,1.58008,6.44141l-.0127.44238h-7.47363a4.58642,4.58642,0,0,0,.7334,2.70117,2.07926,2.07926,0,0,0,1.709.95606Q118.7959,363.63672,119.27734,361.53906Zm.15528-3.93359a4.46684,4.46684,0,0,0-.68653-2.584,1.88941,1.88941,0,0,0-1.542-.86621,1.91332,1.91332,0,0,0-1.59277.90039,4.2319,4.2319,0,0,0-.64746,2.54981Z"/><path d="M127.65918,355.99121l-2.707-.63476a5.71674,5.71674,0,0,1,1.626-3.19532,4.86436,4.86436,0,0,1,3.25781-.97265,5.94244,5.94244,0,0,1,2.88867.5664,3.25307,3.25307,0,0,1,1.4248,1.54,9.94747,9.94747,0,0,1,.42774,3.543l-.02637,4.53027a20.57935,20.57935,0,0,0,.14258,2.83887,10.16338,10.16338,0,0,0,.53125,1.98242h-2.95313l-.38867-1.60058a5.65472,5.65472,0,0,1-1.63867,1.45605,3.751,3.751,0,0,1-1.85937.48926,3.43983,3.43983,0,0,1-2.69434-1.18164,4.55891,4.55891,0,0,1-1.04883-3.14356,5.13008,5.13008,0,0,1,.42774-2.16992,3.64554,3.64554,0,0,1,1.2041-1.47851,7.70746,7.70746,0,0,1,2.4873-.98145,13.56885,13.56885,0,0,0,2.88867-.95312,4.96989,4.96989,0,0,0-.16211-1.60352,1.3116,1.3116,0,0,0-.5957-.624,2.53185,2.53185,0,0,0-1.22461-.24317,1.902,1.902,0,0,0-1.26269.38672A2.84623,2.84623,0,0,0,127.65918,355.99121Zm3.99023,3.16016a14.3652,14.3652,0,0,1-1.77441.58105,4.03489,4.03489,0,0,0-1.81348.8584,1.7403,1.7403,0,0,0-.42773,1.21777,2.15656,2.15656,0,0,0,.47266,1.41895,1.47347,1.47347,0,0,0,1.18554.57422,2.08512,2.08512,0,0,0,1.25586-.46387,2.44389,2.44389,0,0,0,.86231-1.09961,7.52213,7.52213,0,0,0,.23925-2.31152Z"/><path d="M138.14063,366.18945V345.958h2.99218v20.23144Z"/><path d="M149.95508,351.5332v3.0918h-2.0332v5.916a13.76817,13.76817,0,0,0,.09082,2.22461.7194.7194,0,0,0,.73828.55371,3.08783,3.08783,0,0,0,1.1914-.37305l.25879,3.00879a4.72646,4.72646,0,0,1-2.34472.5791,2.736,2.736,0,0,1-1.82618-.58008,2.90222,2.90222,0,0,1-.91992-1.67187,18.3261,18.3261,0,0,1-.18066-3.26075V354.625h-1.37305v-3.0918h1.37305v-2.91211l2.99219-2.26269v5.1748Z"/><path d="M155.63086,345.958v7.4248a5.29444,5.29444,0,0,1,1.57324-1.64941,3.43505,3.43505,0,0,1,1.87207-.54492,3.38784,3.38784,0,0,1,2.25391.75976,4.18427,4.18427,0,0,1,1.2959,2.1543,14.68,14.68,0,0,1,.28418,3.48144v8.60547H159.918v-7.751a10.30552,10.30552,0,0,0-.32227-3.3711,1.57983,1.57983,0,0,0-1.53711-.91211,2.01929,2.01929,0,0,0-1.78906.98828,7.40971,7.40971,0,0,0-.63867,3.69532v7.35058h-2.99219V345.958Z"/><path d="M165.127,351.5332h3.18653L171,361.94336l2.63672-10.41016h3.09668l-3.97949,14.1045-.76465,2.74609a9.13856,9.13856,0,0,1-1.00586,2.26367,3.36858,3.36858,0,0,1-1.27149,1.10352,4.21582,4.21582,0,0,1-1.90039.38672,6.22883,6.22883,0,0,1-1.70019-.23438l-.25879-3.03613a5.13263,5.13263,0,0,0,1.25684.17871,1.81768,1.81768,0,0,0,1.40625-.60547,4.99042,4.99042,0,0,0,.90332-2.2041Z"/><path d="M177.58887,362.31152h2.97949V365.085a8.97568,8.97568,0,0,1-.51758,3.50586,4.14351,4.14351,0,0,1-2.125,2.11133l-.583-1.60059a2.64651,2.64651,0,0,0,1.26953-1.042,3.86205,3.86205,0,0,0,.415-1.87012h-1.43847Z"/><path d="M193.21484,366.18945,189.48242,345.958H192.708l2.33789,13.90429,2.84668-13.90429h3.74707l2.7334,14.13867,2.40234-14.13867h3.16113l-3.78222,20.23144h-3.34668l-3.11133-15.13183-3.083,15.13183Z"/><path d="M218.30664,361.53906l2.96582.64844a6.33265,6.33265,0,0,1-1.85449,3.27734,5.00917,5.00917,0,0,1-6.92578-.71386,9.27735,9.27735,0,0,1-1.6084-5.80664,9.754,9.754,0,0,1,1.61914-5.88965,4.22238,4.22238,0,0,1,3.5498-1.86621,4.41828,4.41828,0,0,1,3.79493,1.90722q1.58057,2.18409,1.58007,6.44141l-.01269.44238h-7.47363a4.5865,4.5865,0,0,0,.73339,2.70117,2.07929,2.07929,0,0,0,1.709.95606Q217.8252,363.63672,218.30664,361.53906Zm.15527-3.93359a4.46677,4.46677,0,0,0-.68652-2.584,1.88941,1.88941,0,0,0-1.542-.86621,1.91332,1.91332,0,0,0-1.59277.90039,4.232,4.232,0,0,0-.64747,2.54981Z"/><path d="M226.6875,355.99121l-2.707-.63476a5.71674,5.71674,0,0,1,1.626-3.19532,4.86436,4.86436,0,0,1,3.25781-.97265,5.94244,5.94244,0,0,1,2.88867.5664,3.25307,3.25307,0,0,1,1.4248,1.54,9.94747,9.94747,0,0,1,.42774,3.543l-.02637,4.53027a20.57935,20.57935,0,0,0,.14258,2.83887,10.16338,10.16338,0,0,0,.53125,1.98242H231.2998l-.38867-1.60058a5.65472,5.65472,0,0,1-1.63867,1.45605,3.751,3.751,0,0,1-1.85937.48926,3.43983,3.43983,0,0,1-2.69434-1.18164,4.55891,4.55891,0,0,1-1.04883-3.14356,5.13008,5.13008,0,0,1,.42774-2.16992,3.64554,3.64554,0,0,1,1.2041-1.47851,7.70746,7.70746,0,0,1,2.4873-.98145,13.56885,13.56885,0,0,0,2.88867-.95312,4.97028,4.97028,0,0,0-.1621-1.60352,1.31167,1.31167,0,0,0-.59571-.624,2.53185,2.53185,0,0,0-1.22461-.24317,1.902,1.902,0,0,0-1.26269.38672A2.84623,2.84623,0,0,0,226.6875,355.99121Zm3.99023,3.16016a14.3652,14.3652,0,0,1-1.77441.58105,4.03489,4.03489,0,0,0-1.81348.8584,1.7403,1.7403,0,0,0-.42773,1.21777,2.15656,2.15656,0,0,0,.47266,1.41895,1.47347,1.47347,0,0,0,1.18554.57422,2.08512,2.08512,0,0,0,1.25586-.46387,2.44389,2.44389,0,0,0,.86231-1.09961,7.52213,7.52213,0,0,0,.23925-2.31152Z"/><path d="M237.169,366.18945V345.958h2.99218v20.23144Z"/><path d="M248.9834,351.5332v3.0918h-2.0332v5.916a13.76817,13.76817,0,0,0,.09082,2.22461.7194.7194,0,0,0,.73828.55371,3.08783,3.08783,0,0,0,1.1914-.37305l.25879,3.00879a4.72646,4.72646,0,0,1-2.34472.5791,2.736,2.736,0,0,1-1.82618-.58008,2.90222,2.90222,0,0,1-.91992-1.67187,18.3261,18.3261,0,0,1-.18066-3.26075V354.625H242.585v-3.0918H243.958v-2.91211l2.99219-2.26269v5.1748Z"/><path d="M254.65918,345.958v7.4248a5.29444,5.29444,0,0,1,1.57324-1.64941,3.43505,3.43505,0,0,1,1.87207-.54492,3.38784,3.38784,0,0,1,2.25391.75976,4.18427,4.18427,0,0,1,1.2959,2.1543,14.68,14.68,0,0,1,.28418,3.48144v8.60547h-2.99219v-7.751a10.30552,10.30552,0,0,0-.32227-3.3711,1.57983,1.57983,0,0,0-1.53711-.91211,2.01929,2.01929,0,0,0-1.78906.98828,7.40971,7.40971,0,0,0-.63867,3.69532v7.35058H251.667V345.958Z"/><path d="M282.22656,358.751l3.04395,1.25586a9.30159,9.30159,0,0,1-2.37012,4.96093,5.71512,5.71512,0,0,1-4.08105,1.56641,5.90464,5.90464,0,0,1-4.93457-2.498,12.61977,12.61977,0,0,1-2.17676-7.7832q0-5.1753,2.1914-8.10059a6.07725,6.07725,0,0,1,5.12207-2.53906,5.73,5.73,0,0,1,4.38184,1.9043,8.47778,8.47778,0,0,1,1.84082,4.01562l-3.1084.96582a4.58809,4.58809,0,0,0-1.1875-2.51855,2.8875,2.8875,0,0,0-2.0957-.876,3.2851,3.2851,0,0,0-2.81641,1.60059q-1.08984,1.60107-1.08984,5.28613,0,3.82178,1.0625,5.4375a3.19076,3.19076,0,0,0,2.75879,1.61426,2.77948,2.77948,0,0,0,2.15039-1.02832A6.73275,6.73275,0,0,0,282.22656,358.751Z"/><path d="M287.85059,358.6543a9.395,9.395,0,0,1,.80273-3.92676,6.22132,6.22132,0,0,1,2.09863-2.6543,5.0471,5.0471,0,0,1,2.91407-.88476,4.907,4.907,0,0,1,4.27539,2.27441,9.18939,9.18939,0,0,1,1.55371,5.31543,9.9836,9.9836,0,0,1-.80957,4.09277,6.41124,6.41124,0,0,1-2.124,2.74414,4.92615,4.92615,0,0,1-2.88183.91895,5.14854,5.14854,0,0,1-4.1709-2.0459A9.054,9.054,0,0,1,287.85059,358.6543Zm3.05664.207a5.76582,5.76582,0,0,0,.81836,3.37109,2.38343,2.38343,0,0,0,1.97363,1.1416,2.33041,2.33041,0,0,0,1.93457-1.14843,5.91169,5.91169,0,0,0,.80469-3.39161,5.712,5.712,0,0,0-.81836-3.33593,2.22995,2.22995,0,0,0-3.90137,0A5.80788,5.80788,0,0,0,290.90723,358.86133Z"/><path d="M302.2168,351.5332h2.74609v2.001a5.75039,5.75039,0,0,1,1.61914-1.75977,3.37538,3.37538,0,0,1,1.9043-.58593,3.12105,3.12105,0,0,1,1.88476.5791,4.11036,4.11036,0,0,1,1.30176,1.75293,5.89462,5.89462,0,0,1,1.61328-1.75293,3.22912,3.22912,0,0,1,1.833-.5791,3.36921,3.36921,0,0,1,1.98828.58691,3.6286,3.6286,0,0,1,1.26953,1.67871,9.67607,9.67607,0,0,1,.4336,3.35645v9.3789h-2.99219v-8.38672a7.61243,7.61243,0,0,0-.36328-2.92187,1.25613,1.25613,0,0,0-1.2168-.72559,1.82257,1.82257,0,0,0-1.60644,1.01563,8.66441,8.66441,0,0,0-.60938,3.97265v7.0459h-2.99219v-8.041a11.68512,11.68512,0,0,0-.24609-3.08106,1.269,1.269,0,0,0-1.30762-.91211,1.85221,1.85221,0,0,0-1.21777.46973,2.64358,2.64358,0,0,0-.80371,1.375,13.14272,13.14272,0,0,0-.2461,3.06055v7.1289H302.2168Z"/><path d="M322.166,351.5332h2.74609v2.001a5.75039,5.75039,0,0,1,1.61914-1.75977,3.37538,3.37538,0,0,1,1.9043-.58593,3.12105,3.12105,0,0,1,1.88476.5791,4.11036,4.11036,0,0,1,1.30176,1.75293,5.89462,5.89462,0,0,1,1.61328-1.75293,3.22912,3.22912,0,0,1,1.833-.5791,3.36923,3.36923,0,0,1,1.98828.58691,3.6286,3.6286,0,0,1,1.26953,1.67871,9.67631,9.67631,0,0,1,.4336,3.35645v9.3789h-2.99219v-8.38672a7.61264,7.61264,0,0,0-.36328-2.92187,1.25613,1.25613,0,0,0-1.2168-.72559,1.8226,1.8226,0,0,0-1.60645,1.01563,8.66444,8.66444,0,0,0-.60937,3.97265v7.0459h-2.99219v-8.041a11.68512,11.68512,0,0,0-.24609-3.08106,1.269,1.269,0,0,0-1.30762-.91211,1.85221,1.85221,0,0,0-1.21777.46973A2.64358,2.64358,0,0,0,325.4043,356a13.14216,13.14216,0,0,0-.2461,3.06055v7.1289H322.166Z"/><path d="M349.74609,366.18945v-2.19238a4.91691,4.91691,0,0,1-1.6289,1.86523,3.74748,3.74748,0,0,1-2.1084.67188,3.36721,3.36721,0,0,1-1.99121-.62109,3.69389,3.69389,0,0,1-1.3125-1.76856,9.85748,9.85748,0,0,1-.4336-3.3291V351.5332h2.99219v6.73438a29.049,29.049,0,0,0,.13574,3.66406,2.06663,2.06663,0,0,0,.60059,1.208,1.6019,1.6019,0,0,0,1.124.42773,2.04861,2.04861,0,0,0,1.38184-.55859,2.65215,2.65215,0,0,0,.833-1.43555,22.48587,22.48587,0,0,0,.20019-3.85742V351.5332h2.99219v14.65625Z"/><path d="M366.50879,366.18945H363.5166v-7.48828a16.78921,16.78921,0,0,0-.168-2.998,2.07988,2.07988,0,0,0-.62793-1.14747,1.5469,1.5469,0,0,0-1.043-.40039,2.04656,2.04656,0,0,0-1.36035.51856,2.75119,2.75119,0,0,0-.85449,1.42969,15.59666,15.59666,0,0,0-.24609,3.44043v6.6455h-2.99317V351.5332h2.77246v2.13965a5.67231,5.67231,0,0,1,1.665-1.86328,3.60556,3.60556,0,0,1,2.05274-.62109,3.4103,3.4103,0,0,1,2.209.72461,3.71732,3.71732,0,0,1,1.24317,1.86523,12.08791,12.08791,0,0,1,.34277,3.29395Z"/><path d="M370.15039,349.5459V345.958h2.99219v3.58789Zm0,16.64355V351.5332h2.99219v14.65625Z"/><path d="M381.96484,351.5332v3.0918h-2.0332v5.916a13.76817,13.76817,0,0,0,.09082,2.22461.71941.71941,0,0,0,.73828.55371,3.08786,3.08786,0,0,0,1.19141-.37305l.25879,3.00879a4.72649,4.72649,0,0,1-2.34473.5791,2.736,2.736,0,0,1-1.82617-.58008,2.90216,2.90216,0,0,1-.91992-1.67187,18.32478,18.32478,0,0,1-.18067-3.26075V354.625h-1.373v-3.0918h1.373v-2.91211l2.99219-2.26269v5.1748Z"/><path d="M383.23633,351.5332h3.18652l2.68653,10.41016,2.63671-10.41016h3.09668l-3.97949,14.1045-.76465,2.74609a9.13856,9.13856,0,0,1-1.00586,2.26367,3.36848,3.36848,0,0,1-1.27148,1.10352,4.21588,4.21588,0,0,1-1.90039.38672,6.22885,6.22885,0,0,1-1.7002-.23438l-.25879-3.03613a5.13269,5.13269,0,0,0,1.25684.17871,1.81768,1.81768,0,0,0,1.40625-.60547,4.99019,4.99019,0,0,0,.90332-2.2041Z"/><path d="M398.51367,360.97266l-.76465-10.26758-.0039-4.74707h3.22461l-.001,4.74707-.76367,10.26758Zm-.63965,5.21679.001-3.87793h2.97559l.00293,3.87793Z"/></svg>